<svg width="80" height="80" viewBox="0 0 80 80" fill="none" xmlns="http://www.w3.org/2000/svg">
<path d="M46.6667 31V40.6667H55.3333C56 40.6667 56.3333 41.3333 56.3333 42L55 48.3333C55 48.6667 54.3333 49 54 49H46.6667V73.3333H36.6667V49.3333H31C30.3333 49.3333 30 49 30 48.3333V42C30 41.3333 30.3333 41 31 41H36.6667V30C36.6667 24.3333 41 20 46.6667 20H55.6667C56.3333 20 56.6667 20.3333 56.6667 21V29C56.6667 29.6667 56.3333 30 55.6667 30H47.6667C47 30 46.6667 30.3333 46.6667 31Z" stroke="#15A3C7" stroke-width="5" stroke-miterlimit="10" stroke-linecap="round"/>
<path d="M50 73.3333H30C13.3333 73.3333 6.66666 66.6666 6.66666 50V30C6.66666 13.3333 13.3333 6.66663 30 6.66663H50C66.6667 6.66663 73.3333 13.3333 73.3333 30V50C73.3333 66.6666 66.6667 73.3333 50 73.3333Z" stroke="#15A3C7" stroke-width="5" stroke-linecap="round" stroke-linejoin="round"/>
</svg>
