<svg width="40" height="37" viewBox="0 0 40 37" fill="none" xmlns="http://www.w3.org/2000/svg">
<path d="M40.3958 13.282C40.396 13.0984 40.3507 12.9177 40.2642 12.7558C40.1777 12.5939 40.0525 12.4559 39.8998 12.3541L39.8997 12.354L40.0625 13.2818M40.3958 13.282L40.0625 13.2818M40.3958 13.282V13.2818H40.0625M40.3958 13.282V33.5943C40.3958 34.3043 40.1138 34.9852 39.6117 35.4872C39.1097 35.9893 38.4288 36.2713 37.7188 36.2713H3.34375C2.63374 36.2713 1.95282 35.9893 1.45077 35.4872C0.948716 34.9852 0.666667 34.3043 0.666667 33.5943L0.666667 13.282L1 13.2818M40.0625 13.2818V33.5943C40.0625 34.2159 39.8156 34.812 39.376 35.2515C38.9365 35.6911 38.3404 35.938 37.7188 35.938H3.34375C2.72215 35.938 2.12601 35.6911 1.68647 35.2515C1.24693 34.812 1 34.2159 1 33.5943V13.2818M1 13.2818H0.666667M1 13.2818H0.666667M0.666667 13.2818C0.666583 13.0983 0.711793 12.9176 0.798285 12.7558C0.884811 12.5939 1.00997 12.456 1.16266 12.3541L1.16276 12.354L19.9127 -0.145917L20.0976 0.131357L19.9128 -0.145983C20.0959 -0.268143 20.3111 -0.333333 20.5312 -0.333333C20.7514 -0.333333 20.9666 -0.268143 21.1497 -0.145983L20.9648 0.131367L21.1498 -0.145917L0.666667 13.2818ZM2.89583 15.4446L15.1956 24.2179L2.89583 32.9039V15.4446ZM5.14739 34.0422L17.4769 25.3338H23.5856L35.9224 34.0422H5.14739ZM38.1667 32.9039L25.8669 24.2179L38.1667 15.4446V32.9039ZM17.4797 23.1047L3.74531 13.3125L20.5313 2.12179L37.3267 13.3124L23.5828 23.1047H17.4797Z" fill="black" stroke="white" stroke-width="0.666667"/>
</svg>
