<svg width="44" height="44" viewBox="0 0 44 44" fill="none" xmlns="http://www.w3.org/2000/svg">
<path d="M42.7709 35.1875C42.7709 35.9375 42.6042 36.7083 42.25 37.4583C41.8959 38.2083 41.4375 38.9166 40.8334 39.5833C39.8125 40.7083 38.6875 41.5208 37.4167 42.0416C36.1667 42.5625 34.8125 42.8333 33.3542 42.8333C31.2292 42.8333 28.9584 42.3333 26.5625 41.3125C24.1667 40.2916 21.7709 38.9166 19.3959 37.1875C16.9752 35.4168 14.691 33.4669 12.5625 31.3541C10.4558 29.2333 8.51273 26.956 6.75002 24.5416C5.04169 22.1666 3.66669 19.7916 2.66669 17.4375C1.66669 15.0625 1.16669 12.7916 1.16669 10.625C1.16669 9.20829 1.41669 7.85413 1.91669 6.60413C2.41669 5.33329 3.20835 4.16663 4.31252 3.12496C5.64585 1.81246 7.10419 1.16663 8.64585 1.16663C9.22919 1.16663 9.81252 1.29163 10.3334 1.54163C10.875 1.79163 11.3542 2.16663 11.7292 2.70829L16.5625 9.52079C16.9375 10.0416 17.2084 10.5208 17.3959 10.9791C17.5834 11.4166 17.6875 11.8541 17.6875 12.25C17.6875 12.75 17.5417 13.25 17.25 13.7291C16.9792 14.2083 16.5834 14.7083 16.0834 15.2083L14.5 16.8541C14.2709 17.0833 14.1667 17.3541 14.1667 17.6875C14.1667 17.8541 14.1875 18 14.2292 18.1666C14.2917 18.3333 14.3542 18.4583 14.3959 18.5833C14.7709 19.2708 15.4167 20.1666 16.3334 21.25C17.2709 22.3333 18.2709 23.4375 19.3542 24.5416C20.4792 25.6458 21.5625 26.6666 22.6667 27.6041C23.75 28.5208 24.6459 29.1458 25.3542 29.5208C25.4584 29.5625 25.5834 29.625 25.7292 29.6875C25.8959 29.75 26.0625 29.7708 26.25 29.7708C26.6042 29.7708 26.875 29.6458 27.1042 29.4166L28.6875 27.8541C29.2084 27.3333 29.7084 26.9375 30.1875 26.6875C30.6667 26.3958 31.1459 26.25 31.6667 26.25C32.0625 26.25 32.4792 26.3333 32.9375 26.5208C33.3959 26.7083 33.875 26.9791 34.3959 27.3333L41.2917 32.2291C41.8334 32.6041 42.2084 33.0416 42.4375 33.5625C42.6459 34.0833 42.7709 34.6041 42.7709 35.1875Z" stroke="black" stroke-width="2" stroke-miterlimit="10"/>
</svg>
