<svg width="51" height="72" viewBox="0 0 51 72" fill="none" xmlns="http://www.w3.org/2000/svg">
<path d="M47.6667 61H34.3333M41 67.6666V54.3333M25.9667 68.7C19.9 68.7 13.8667 67.1666 9.26668 64.1C1.20001 58.7 1.20001 49.9 9.26668 44.5333C18.4333 38.4 33.4667 38.4 42.6333 44.5333M26.5333 32.2333C26.2 32.2 25.8 32.2 25.4333 32.2333C21.6074 32.1034 17.9821 30.4894 15.3254 27.7332C12.6687 24.9769 11.1891 21.2948 11.2 17.4666C11.1947 15.5244 11.5729 13.6002 12.3127 11.8044C13.0525 10.0086 14.1395 8.37642 15.5113 7.0015C16.8831 5.62658 18.5128 4.53593 20.307 3.79206C22.1011 3.0482 24.0244 2.66574 25.9667 2.66663C34.1333 2.66663 40.7667 9.29996 40.7667 17.4666C40.7667 25.4666 34.4333 31.9666 26.5333 32.2333Z" stroke="#15A3C7" stroke-width="5" stroke-linecap="round" stroke-linejoin="round"/>
</svg>
